<svg xmlns="http://www.w3.org/2000/svg" xmlns:xlink="http://www.w3.org/1999/xlink" width="358.003" height="63.479" viewBox="0 0 358.003 63.479">
  <defs>
    <clipPath id="clip-path">
      <rect id="Rectangle_200" data-name="Rectangle 200" width="168.002" height="53.664" fill="none"/>
    </clipPath>
  </defs>
  <g id="Group_3496" data-name="Group 3496" transform="translate(-60 -7583.499)">
    <g id="Group_3495" data-name="Group 3495" transform="translate(60 7593.313)">
      <path id="Path_3202" data-name="Path 3202" d="M378.626.821l5.147,0-.892,1.11V22.544l.891,1.109-5.743.008-9.5-15.639V23.647l-5.145,0,.89-1.107V1.929l-.89-1.107h5.75l9.493,15.625Zm-.8-.8V13.594L369.583.023h-7.865l1.758,2.187V22.263l-1.758,2.188,7.611-.005V10.875l8.253,13.586,7.855-.011-1.757-2.186V2.21L385.44.019Z" transform="translate(-265.423 -0.014)" fill="#fffded"/>
      <path id="Path_3203" data-name="Path 3203" d="M108.091,10.714V1.972l-.932-1.16h6.119l-.932,1.16V22.483l.932,1.16h-6.119l.932-1.16V14.97h-9.2v7.514l.932,1.16H93.7l.932-1.16V1.973L93.7.813H99.82l-.932,1.16v8.742Zm-2.6-10.7,1.8,2.239V9.916H99.687V2.253l1.8-2.239H92.035l1.8,2.24V22.2l-1.8,2.239h9.452l-1.8-2.239V15.768h7.605V22.2l-1.8,2.239h9.452l-1.8-2.239V2.254l1.8-2.24Z" transform="translate(-67.534 -0.01)" fill="#fffded"/>
      <path id="Path_3204" data-name="Path 3204" d="M460.861,22.473V1.962L459.929.8l18.645,0V5.986l-1.16-.932h-12.3V9.9h8.735v4.255h-8.735v5.225h12.3l1.16-.932v5.187H459.929ZM479.372,0,458.263,0l1.8,2.24V22.192l-1.8,2.239h21.109V16.779l-2.24,1.8H465.915V14.952h8.735V9.1h-8.735V5.852h11.217l2.24,1.8Z" transform="translate(-336.267)" fill="#fffded"/>
      <path id="Path_3205" data-name="Path 3205" d="M281.921.813h17.054V6.558l-1.855-1.491h-4.545V22.483l.932,1.16h-6.119l.932-1.16V5.068h-4.545l-1.855,1.491Zm-.8-.8V8.225l2.935-2.359h3.465V22.2l-1.8,2.239h9.452l-1.8-2.239V5.866h3.464l2.935,2.359V.014Z" transform="translate(-206.283 -0.01)" fill="#fffded"/>
      <path id="Path_3206" data-name="Path 3206" d="M561.63.8h4.978L558.717,13.81v8.663l.932,1.16H553.53l.932-1.16V13.81L546.57.8h4.979l5.04,8.312Zm-.45-.8-4.591,7.57L552,0h-6.846l8.511,14.033v8.159l-1.8,2.239h9.452l-1.8-2.239V14.033L568.027,0Z" transform="translate(-400.025)" fill="#fffded"/>
      <g id="Group_3492" data-name="Group 3492">
        <g id="Group_3491" data-name="Group 3491" clip-path="url(#clip-path)">
          <path id="Path_3207" data-name="Path 3207" d="M199.236.014l1.8,2.239-.007,12.534a3.795,3.795,0,0,1-7.59,0l-.007-12.534,1.8-2.239h-9.452l1.8,2.239-.007,12.534a9.662,9.662,0,1,0,19.325,0l-.008-12.533,1.8-2.239ZM206.1,14.787a8.864,8.864,0,0,1-17.727,0l.007-12.815-.932-1.16h6.119l-.932,1.16.007,12.815a4.594,4.594,0,0,0,9.187,0l.007-12.815L200.9.813h6.119l-.933,1.16Z" transform="translate(-136.322 -0.01)" fill="#fffded"/>
          <path id="Path_3208" data-name="Path 3208" d="M10.727,18.622c-2.688-.007-4.875-2.859-4.875-6.359S8.039,5.911,10.725,5.9a4.144,4.144,0,0,1,2.913,1.276V9.915l.592-.327c1.846-1.019,3.753-2.074,5.535-3.061l.342-.19-.183-.346A10.617,10.617,0,0,0,10.731.052h-.044C4.791.083,0,5.552,0,12.263c0,6.446,4.419,11.746,10,12.182.115.009,1.1.046,1.1.046H21.352V18.641h-.4l-10.226-.018m9.826,5.071H11.858s-.476,0-.95-.007c-.4-.009-.8-.033-.911-.042C4.862,23.209.8,18.268.8,12.263.8,5.982,5.246.864,10.727.85h0a9.625,9.625,0,0,1,8.3,5.17c-1.489.825-3.055,1.692-4.593,2.541V6.855l-.112-.116a5.033,5.033,0,0,0-3.6-1.633C7.6,5.114,5.053,8.325,5.053,12.263s2.544,7.15,5.671,7.158h0l9.827.017Z" transform="translate(0 -0.038)" fill="#fffded"/>
          <path id="Path_3209" data-name="Path 3209" d="M295.981,128.345c-2.688-.007-4.875-2.859-4.875-6.359s2.187-6.352,4.873-6.359a4.143,4.143,0,0,1,2.913,1.276v2.735l.592-.327c1.846-1.019,3.753-2.074,5.535-3.061l.342-.19-.183-.346a10.618,10.618,0,0,0-9.194-5.939h-.053c-5.892.036-10.677,5.5-10.677,12.211s4.8,12.2,10.723,12.212H296l10.6.019v-5.852h-.4l-10.226-.018m9.826,5.07L296,133.4h-.025c-5.474-.007-9.926-5.127-9.926-11.413,0-6.257,4.411-11.358,9.861-11.412h.067a9.625,9.625,0,0,1,8.3,5.17c-1.489.825-3.056,1.692-4.594,2.541v-1.707l-.112-.116a5.033,5.033,0,0,0-3.6-1.633c-3.127.008-5.671,3.219-5.671,7.157s2.544,7.15,5.671,7.158h0l9.827.017Z" transform="translate(-209.315 -80.552)" fill="#fffded"/>
          <path id="Path_3210" data-name="Path 3210" d="M380.89,109.817v-.009h-.8v.009c-5.729.247-10.325,5.629-10.325,12.2,0,6.72,4.8,12.195,10.723,12.211h.014c5.909-.013,10.715-5.489,10.715-12.211,0-6.574-4.6-11.956-10.326-12.2m-.379,23.615h-.022c-5.474-.007-9.927-5.126-9.927-11.412,0-6.257,4.413-11.359,9.852-11.413h.076c5.473.007,9.927,5.127,9.927,11.413s-4.442,11.393-9.906,11.413" transform="translate(-271.328 -80.576)" fill="#fffded"/>
          <path id="Path_3211" data-name="Path 3211" d="M394.418,128.792c-3.127.008-5.671,3.219-5.671,7.158s2.544,7.15,5.671,7.158h0c3.127-.008,5.671-3.219,5.671-7.158s-2.544-7.15-5.674-7.158m0,13.517c-2.688-.007-4.874-2.86-4.874-6.359s2.187-6.352,4.873-6.359,4.875,2.859,4.875,6.359-2.186,6.352-4.874,6.359" transform="translate(-285.257 -94.506)" fill="#fffded"/>
          <path id="Path_3212" data-name="Path 3212" d="M506.007,112.412c-3.421-2.3-7.694-2.605-11.423-2.605H483.659c-3.729,0-8,.31-11.424,2.605a10.354,10.354,0,0,0-3.516,4.136,12.909,12.909,0,0,0,0,10.941,10.344,10.344,0,0,0,3.516,4.136c3.421,2.3,7.694,2.606,11.424,2.606h10.924c3.729,0,8-.31,11.423-2.605a12.115,12.115,0,0,0,0-19.212m-.445,18.549c-3.243,2.176-7.369,2.47-10.978,2.47H483.659c-3.609,0-7.735-.293-10.978-2.47a9.553,9.553,0,0,1-3.242-3.819,12.112,12.112,0,0,1,0-10.249,9.555,9.555,0,0,1,3.242-3.819c3.243-2.176,7.37-2.47,10.978-2.47h10.924c3.609,0,7.735.294,10.978,2.47a11.321,11.321,0,0,1,0,17.886" transform="translate(-343.047 -80.575)" fill="#fffded"/>
          <path id="Path_3213" data-name="Path 3213" d="M499.7,161.97h1.472v4.379h.943V161.97H503.6v-.79h-3.9Z" transform="translate(-366.672 -118.271)" fill="#fffded"/>
          <path id="Path_3214" data-name="Path 3214" d="M519.934,161.18l-1.656,5.169h.974l.445-1.465h1.641l.468,1.465h1.012l-1.68-5.169Zm-.084,2.991.4-1.273c.092-.307.169-.667.245-.966,0,0,.177.652.276.966l.407,1.273Z" transform="translate(-380.305 -118.272)" fill="#fffded"/>
          <path id="Path_3215" data-name="Path 3215" d="M546.19,161.458a2.338,2.338,0,0,0-1.526-.422,8.167,8.167,0,0,0-1.442.107v5.1h.935V164.3a2.643,2.643,0,0,0,.46.031,2.279,2.279,0,0,0,1.633-.552,1.566,1.566,0,0,0,.445-1.173,1.46,1.46,0,0,0-.507-1.143m-1.572,2.132a1.9,1.9,0,0,1-.46-.038V161.8a2.592,2.592,0,0,1,.545-.046c.652,0,1.051.307,1.051.882,0,.606-.43.951-1.135.951" transform="translate(-398.609 -118.166)" fill="#fffded"/>
          <path id="Path_3216" data-name="Path 3216" d="M562.679,161.18l-1.656,5.169H562l.445-1.465h1.641l.468,1.465h1.012l-1.679-5.169Zm-.084,2.991.4-1.273c.092-.307.261-.966.261-.966.077.3.161.652.261.966l.406,1.273Z" transform="translate(-411.671 -118.272)" fill="#fffded"/>
          <path id="Path_3217" data-name="Path 3217" d="M587.128,163.11c-.691-.268-.99-.452-.99-.851,0-.3.261-.621.859-.621a2.187,2.187,0,0,1,1.028.245l.23-.759a2.728,2.728,0,0,0-1.242-.261c-1.12,0-1.825.644-1.825,1.488,0,.744.544,1.2,1.4,1.5.66.238.92.468.92.859,0,.422-.337.706-.943.706a2.611,2.611,0,0,1-1.25-.33l-.207.782a3.067,3.067,0,0,0,1.4.322c1.335,0,1.963-.721,1.963-1.549,0-.744-.437-1.2-1.334-1.534" transform="translate(-429.341 -118.039)" fill="#fffded"/>
          <rect id="Rectangle_198" data-name="Rectangle 198" width="0.943" height="5.169" transform="translate(130.902 34.771)" fill="#fffded"/>
          <path id="Path_3218" data-name="Path 3218" d="M508.6,130.615h-.874v1.8c0,.79.023,1.457.084,2.147,0,0-.552-1.158-.9-1.734l-1.335-2.216h-1.074v5.169h.867v-1.848c0-.851-.007-1.534-.046-2.2,0,0,.621,1.212.951,1.779l1.35,2.27h.974Z" transform="translate(-370.201 -95.844)" fill="#fffded"/>
          <path id="Path_3219" data-name="Path 3219" d="M532.775,131.07a3.147,3.147,0,0,0-2.109-.6,9.539,9.539,0,0,0-1.5.107v5.085a10.308,10.308,0,0,0,1.273.069,3.45,3.45,0,0,0,2.339-.705,2.675,2.675,0,0,0,.805-2.055,2.313,2.313,0,0,0-.805-1.9m-2.147,3.911a3.494,3.494,0,0,1-.522-.023v-3.7a3.025,3.025,0,0,1,.645-.054A1.64,1.64,0,0,1,532.584,133a1.771,1.771,0,0,1-1.956,1.979" transform="translate(-388.293 -95.739)" fill="#fffded"/>
          <rect id="Rectangle_199" data-name="Rectangle 199" width="0.943" height="5.169" transform="translate(147.488 34.771)" fill="#fffded"/>
          <path id="Path_3220" data-name="Path 3220" d="M567.027,130.616l-1.656,5.169h.974l.445-1.465h1.641l.468,1.465h1.012l-1.68-5.169Zm-.084,2.991.4-1.273c.092-.307.169-.667.246-.966,0,0,.176.652.276.966l.406,1.273Z" transform="translate(-414.861 -95.844)" fill="#fffded"/>
          <path id="Path_3221" data-name="Path 3221" d="M593.535,132.418c0,.79.023,1.457.084,2.147,0,0-.552-1.158-.9-1.733l-1.334-2.216h-1.074v5.169h.867v-1.848c0-.851-.008-1.534-.046-2.2,0,0,.621,1.212.951,1.779l1.35,2.27h.974v-5.169h-.874Z" transform="translate(-433.164 -95.844)" fill="#fffded"/>
          <path id="Path_3222" data-name="Path 3222" d="M24.7,134.049,19.844,114.4l1.308-1.628H10.2L11.5,114.4,6.632,134.135l-1.184,1.473,5.3,0,1.875-7.594h6.1L20.6,135.6l5.3,0-1.184-1.473ZM13.674,123.754l2-8.1,2,8.1Z" transform="translate(-3.998 -82.753)" fill="#fffded"/>
          <path id="Path_3223" data-name="Path 3223" d="M122.774,112.776l-5.147,0V128.4l-9.493-15.625h-5.75l.89,1.107V134.5l-.89,1.107,5.145,0V119.979l9.5,15.639,5.742-.008-.891-1.109V113.886Z" transform="translate(-75.128 -82.754)" fill="#fffded"/>
          <path id="Path_3224" data-name="Path 3224" d="M208.22,112.782h-9.039l.892,1.11v20.6l-.892,1.11h9.039c5.474-.007,9.926-5.126,9.926-11.413s-4.453-11.405-9.926-11.412m0,18.57h-3.892V117.035l3.892,0c3.128.008,5.672,3.219,5.672,7.157s-2.544,7.15-5.671,7.158" transform="translate(-146.156 -82.758)" fill="#fffded"/>
        </g>
      </g>
    </g>
    <g id="Pellini-Logo" transform="translate(262.915 7583.499)">
      <path id="Path_3018" data-name="Path 3018" d="M226.682.344A6.452,6.452,0,0,0,221.1,6.5a6.343,6.343,0,0,0,5.4,6.423c.709-1.462.354-3.145,0-5.05-.443-2.259-.975-4.784.266-7.575h-.089Z" transform="translate(-123.157 -0.3)" fill="#d6001c"/>
      <path id="Path_3019" data-name="Path 3019" d="M236.985.4c-.709,1.462-.354,3.145,0,5.05.443,2.259.975,4.784-.266,7.575A6.452,6.452,0,0,0,242.3,6.867,6.343,6.343,0,0,0,236.9.444h.089Z" transform="translate(-131.777 -0.356)" fill="#d6001c"/>
      <path id="Path_3020" data-name="Path 3020" d="M2.548,134.343h0L.2,127.3H1.4l1.639,5.139h0l1.55-5.139h1.2l-2.348,7.043H2.548Z" transform="translate(-0.111 -71.042)" fill="#fff"/>
      <path id="Path_3021" data-name="Path 3021" d="M36.1,126.376h4.7v.975H37.385v1.728h2.879v.975H37.385v1.816H40.8v.975H36.1V125.8h0v.576Z" transform="translate(-20.108 -70.206)" fill="#fff"/>
      <path id="Path_3022" data-name="Path 3022" d="M75.51,134.232h-.177l-1.373-2.879h-1.2v2.791H71.7V127.1h2.791a1.908,1.908,0,0,1,.975.177c.266,0,.532.266.709.443a4.913,4.913,0,0,1,.532.709c0,.266.177.532.177.886,0,.532,0,.886-.354,1.2a2.419,2.419,0,0,1-1.063.8l1.55,2.968H75.554Zm-1.285-4.075c.354,0,.62,0,.8-.266a1.123,1.123,0,0,0,.354-.8c0-.354,0-.62-.354-.8a1.083,1.083,0,0,0-.8-.266h-1.55v1.9h1.55v.177h0Z" transform="translate(-39.938 -70.93)" fill="#fff"/>
      <path id="Path_3023" data-name="Path 3023" d="M109.414,134.242a3.352,3.352,0,0,1-1.639-.443,2.243,2.243,0,0,1-.975-1.285v-3.987a1.99,1.99,0,0,1,.975-1.285,3.572,3.572,0,0,1,1.639-.443,3.1,3.1,0,0,1,1.639.443,2.243,2.243,0,0,1,.975,1.285v3.987a1.99,1.99,0,0,1-.975,1.285A3.572,3.572,0,0,1,109.414,134.242Zm0-1.152c.354,0,.709,0,.886-.266a2.132,2.132,0,0,0,.532-.709v-3.5c0-.266-.266-.532-.532-.709a1.5,1.5,0,0,0-.886-.266c-.354,0-.709,0-.886.266a1.929,1.929,0,0,0-.443.709v3.5c0,.266.266.532.443.709A1.323,1.323,0,0,0,109.414,133.09Z" transform="translate(-59.489 -70.763)" fill="#fff"/>
      <path id="Path_3024" data-name="Path 3024" d="M143,127.1h1.152l2.968,5.05h0V127.1h.975v7.043h-1.152l-2.968-5.05h0v5.05H143V127.1Z" transform="translate(-79.654 -70.93)" fill="#fff"/>
      <path id="Path_3025" data-name="Path 3025" d="M181.025,127.1h1.285l2.436,7.043h-1.2l-.532-1.373h-2.791l-.532,1.373h-1.2l2.525-7.043Zm1.595,4.518-.975-2.791h0l-.975,2.791h1.949Z" transform="translate(-99.428 -70.93)" fill="#fff"/>
      <path id="Path_3026" data-name="Path 3026" d="M245.252,128.273h0l-1.152.8h0v-1.285l1.152-.886h1.063v7.043h-.975v-5.759h0Z" transform="translate(-135.968 -70.819)" fill="#fff"/>
      <path id="Path_3027" data-name="Path 3027" d="M275.046,130.618h-.62a1.317,1.317,0,0,1-.8-.177c-.266,0-.443-.266-.709-.443a1.929,1.929,0,0,1-.443-.709,2.621,2.621,0,0,1-.177-.886,1.753,1.753,0,0,1,.177-.975,1.378,1.378,0,0,1,.532-.709,1.929,1.929,0,0,1,.709-.443,3.148,3.148,0,0,1,.886-.177,1.6,1.6,0,0,1,.886.177c.266,0,.532.266.709.443a4.913,4.913,0,0,1,.532.709,3.184,3.184,0,0,1,.177.975,1.457,1.457,0,0,1-.177.886,3.146,3.146,0,0,1-.354.8l-1.9,3.411h-1.152l1.55-2.968.177.177v-.089Zm-.354-.93c.354,0,.62,0,.8-.354a1.323,1.323,0,0,0,.266-.886,1.5,1.5,0,0,0-.266-.886,1.123,1.123,0,0,0-.8-.354c-.354,0-.62,0-.8.354a1.323,1.323,0,0,0-.266.886,1.5,1.5,0,0,0,.266.886A1.123,1.123,0,0,0,274.692,129.688Z" transform="translate(-151.676 -70.373)" fill="#fff"/>
      <path id="Path_3028" data-name="Path 3028" d="M305,133.012v-.177l2.614-3.234a1.854,1.854,0,0,0,.354-.532c0-.177.089-.354.089-.62a.735.735,0,0,0-.266-.709,1.006,1.006,0,0,0-.709-.266.735.735,0,0,0-.709.266.872.872,0,0,0-.266.709h-.089l-.975-.177h0a.843.843,0,0,1,.177-.62,1.3,1.3,0,0,1,.443-.532,4.941,4.941,0,0,1,.709-.443c.266,0,.532-.177.886-.177a1.457,1.457,0,0,1,.886.177c.266,0,.532.266.709.443a2.694,2.694,0,0,1,.443.62,2.589,2.589,0,0,1,.177.8,1.6,1.6,0,0,1-.177.886,2.093,2.093,0,0,1-.532.8l-2.082,2.614h2.791v.886h-4.253v-.8h-.177v.089Z" transform="translate(-169.891 -70.596)" fill="#fff"/>
      <path id="Path_3029" data-name="Path 3029" d="M340,133.012v-.177l2.614-3.234a1.851,1.851,0,0,0,.354-.532c0-.177.089-.354.089-.62a.735.735,0,0,0-.266-.709,1.006,1.006,0,0,0-.709-.266.735.735,0,0,0-.709.266.872.872,0,0,0-.266.709h-.089l-.975-.177h0a.843.843,0,0,1,.177-.62,1.3,1.3,0,0,1,.443-.532,4.946,4.946,0,0,1,.709-.443c.266,0,.532-.177.886-.177a1.457,1.457,0,0,1,.886.177c.266,0,.532.266.709.443a2.693,2.693,0,0,1,.443.62,2.586,2.586,0,0,1,.177.8,1.6,1.6,0,0,1-.177.886,2.093,2.093,0,0,1-.532.8l-2.082,2.614h2.791v.886h-4.253v-.8h-.177v.089Z" transform="translate(-189.387 -70.596)" fill="#fff"/>
      <path id="Path_3030" data-name="Path 3030" d="M66.6,75.055V41.3H86.091v4.784H72v4.7H84.452v4.784H72v14.8H86.091v4.784H66.6v-.089Z" transform="translate(-37.097 -23.138)" fill="#fff"/>
      <path id="Path_3031" data-name="Path 3031" d="M126.1,41.3h5.493V70.359H142.8v4.784H126.1Z" transform="translate(-70.24 -23.138)" fill="#fff"/>
      <path id="Path_3032" data-name="Path 3032" d="M177.6,41.3h5.493V70.359H194.3v4.784H177.6Z" transform="translate(-98.927 -23.138)" fill="#fff"/>
      <path id="Path_3033" data-name="Path 3033" d="M229,75.055V41.3h5.493V75.144H229Z" transform="translate(-127.557 -23.138)" fill="#fff"/>
      <path id="Path_3034" data-name="Path 3034" d="M337.4,75.055V41.3h5.493V75.144H337.4Z" transform="translate(-187.938 -23.138)" fill="#fff"/>
      <path id="Path_3035" data-name="Path 3035" d="M280.42,41.244v20.6L265.093,43.814V41.2H259.6V75.044h5.493V51.654L280.42,69.683v5.4h5.493V41.244Z" transform="translate(-144.602 -23.082)" fill="#fff"/>
      <path id="Path_3036" data-name="Path 3036" d="M10.454,41.3H0V75.144H5.493V68.632h4.961a13.644,13.644,0,1,0,0-27.287h0ZM9.746,63.537H5.4V46.128H9.746a8.682,8.682,0,1,1,0,17.365h0Z" transform="translate(0 -23.138)" fill="#fff"/>
    </g>
  </g>
</svg>
