<svg xmlns="http://www.w3.org/2000/svg" xmlns:xlink="http://www.w3.org/1999/xlink" width="162.434" height="162.434" viewBox="0 0 162.434 162.434">
  <defs>
    <clipPath id="clip-path">
      <rect id="Rectangle_185" data-name="Rectangle 185" width="162.434" height="162.434" fill="none"/>
    </clipPath>
  </defs>
  <g id="Group_3480" data-name="Group 3480" clip-path="url(#clip-path)">
    <path id="Path_3053" data-name="Path 3053" d="M81.217,162.434h0a81.217,81.217,0,0,0,81.218-81.217h0A81.217,81.217,0,0,0,0,81.217H0a81.217,81.217,0,0,0,81.217,81.217" fill="#e3e2de"/>
    <path id="Path_3054" data-name="Path 3054" d="M114.467,97.869l-1.391-3.482q-.641-1.354-1.424-2.659a30.543,30.543,0,0,0-7.308-8.483c-.27-.215-.541-.427-.817-.634a32.145,32.145,0,0,0-11-5.307,30.791,30.791,0,0,0-12.156-.686,31.441,31.441,0,0,0-11.528,4.057A30.7,30.7,0,0,0,54.469,99.716a31.27,31.27,0,0,0-.719,12.175,30.929,30.929,0,0,0,4.03,11.488,28.735,28.735,0,0,0,5.126,6.523,32.384,32.384,0,0,0,6.531,4.807,32.034,32.034,0,0,0,7.436,3,30.96,30.96,0,0,0,21.466-2.092l1.938,2.372a2.34,2.34,0,0,0,1.375.718,1.862,1.862,0,0,0,1.438-.469,1.728,1.728,0,0,0,.749-1.312,2.057,2.057,0,0,0-.5-1.5l-24.246-28.97a1.789,1.789,0,0,0-1.312-.686,2.206,2.206,0,0,0-1.5.437,1.809,1.809,0,0,0-.686,1.343,2.023,2.023,0,0,0,.437,1.467l19.623,23.477A26.787,26.787,0,0,1,86,134.772a27.057,27.057,0,0,1-9.593-1.281,27.83,27.83,0,0,1-8.56-4.557,26.944,26.944,0,0,1-6.624-7.555,26.049,26.049,0,0,1-3.53-10.019,27.466,27.466,0,0,1,.656-10.647,26.7,26.7,0,0,1,4.592-9.552,27.669,27.669,0,0,1,7.906-7.056A26.3,26.3,0,0,1,81.095,80.58,27.6,27.6,0,0,1,100.938,85.7a26.33,26.33,0,0,1,7.217,8.023A27.972,27.972,0,0,1,110.03,97.5l.014,0,5.65,14.131,10.358,25.9a1.7,1.7,0,0,0,.624.814,2.058,2.058,0,0,0,.968.374,1.933,1.933,0,0,0,1.093-.218,2.609,2.609,0,0,0,1-.97l.27-.674-3.154-7.972Z" transform="translate(-22.098 -31.545)"/>
    <path id="Path_3055" data-name="Path 3055" d="M132.466,148.328a30.886,30.886,0,0,0,4.812-7.8q.492-1.15.885-2.322l-2.624-6a26.76,26.76,0,0,1-1.571,5.919,27.608,27.608,0,0,1-4.125,7.148L114.6,127.225a2,2,0,0,0-1.375-.686,1.971,1.971,0,0,0-1.438.437,1.81,1.81,0,0,0-.719,1.374,2.1,2.1,0,0,0,.468,1.437l24.558,28.97a1.954,1.954,0,0,0,1.373.718,2.248,2.248,0,0,0,1.438-.467,1.662,1.662,0,0,0,.719-1.342,2.155,2.155,0,0,0-.468-1.469Z" transform="translate(-45.914 -52.309)"/>
    <path id="Path_3056" data-name="Path 3056" d="M192.664,77.658a2.278,2.278,0,0,0-1.224-1.189,2.015,2.015,0,0,0-1.679.036,2.255,2.255,0,0,0-1.187,1.223l-17.622,43.944L153.822,77.729a2.261,2.261,0,0,0-1.19-1.223,2.17,2.17,0,0,0-1.747-.036,2.265,2.265,0,0,0-1.224,1.189,2.165,2.165,0,0,0-.034,1.746l18.324,46.741.628,1.6,0,.008,2.358,6.071L192.7,79.4a2.155,2.155,0,0,0-.036-1.746" transform="translate(-61.788 -31.545)"/>
    <path id="Path_3057" data-name="Path 3057" d="M69.288,195.407a2.493,2.493,0,0,1-.9-.157,2.23,2.23,0,0,1-.716-.438,1.988,1.988,0,0,1,0-2.933,2.221,2.221,0,0,1,.716-.439,2.494,2.494,0,0,1,.9-.157,2.523,2.523,0,0,1,.9.155,2.183,2.183,0,0,1,.716.438,2.021,2.021,0,0,1,.475.659,2.03,2.03,0,0,1,0,1.621,2.032,2.032,0,0,1-.475.658,2.163,2.163,0,0,1-.716.438,2.522,2.522,0,0,1-.9.154m0-.6a1.84,1.84,0,0,0,.656-.111,1.629,1.629,0,0,0,.516-.31,1.415,1.415,0,0,0,.341-1.616,1.405,1.405,0,0,0-.341-.464,1.649,1.649,0,0,0-.516-.309,1.988,1.988,0,0,0-1.309,0,1.659,1.659,0,0,0-.519.307,1.323,1.323,0,0,0-.338.462,1.424,1.424,0,0,0-.117.581,1.438,1.438,0,0,0,.117.578,1.316,1.316,0,0,0,.338.464,1.637,1.637,0,0,0,.519.307,1.843,1.843,0,0,0,.653.111m1.357,1.174-1.518-1.988.51-.3,1.5,1.97Z" transform="translate(-27.711 -79.078)"/>
    <path id="Path_3058" data-name="Path 3058" d="M78.172,195.391l1.81-4.01h.693l1.8,4.01H81.8l-1.191-2.636c-.023-.057-.052-.126-.086-.209s-.07-.167-.106-.255-.072-.175-.1-.263-.06-.166-.083-.235l.166-.006c-.031.08-.062.164-.094.252s-.066.175-.1.26-.069.169-.1.249-.067.157-.1.229l-1.186,2.613Zm.791-.963.241-.6H81.38l.161.6Z" transform="translate(-32.317 -79.119)"/>
    <path id="Path_3059" data-name="Path 3059" d="M89.657,191.38h.619v4.01h-.619Zm.269,1.73H93.06v.6H89.926Zm2.858-1.73H93.4v4.01h-.619Z" transform="translate(-37.065 -79.118)"/>
    <path id="Path_3060" data-name="Path 3060" d="M101.6,195.39l-1.4-4.01h.67l.819,2.411c.03.077.059.16.086.249s.052.182.077.275l.069.263c.021.083.04.156.06.221l-.223-.006c.046-.137.089-.265.131-.384s.084-.229.126-.332.082-.2.12-.292l.733-1.713h.579l.71,1.707c.046.1.091.211.135.324s.084.223.123.329a3,3,0,0,1,.092.309l-.2.04.055-.215c.017-.067.035-.132.052-.195s.036-.127.057-.192.043-.131.066-.2.049-.143.08-.223l.876-2.377h.665l-1.518,4.01H104.2l-1.123-2.629.086.023-1.117,2.606Z" transform="translate(-41.42 -79.118)"/>
    <path id="Path_3061" data-name="Path 3061" d="M113.277,195.391l1.811-4.01h.693l1.8,4.01H116.9l-1.192-2.636c-.022-.057-.052-.126-.086-.209s-.07-.167-.106-.255-.072-.175-.1-.263-.06-.166-.083-.235l.165-.006c-.03.08-.062.164-.094.252s-.066.175-.1.26-.068.169-.1.249-.068.157-.1.229l-1.187,2.613Zm.791-.963.24-.6h2.177l.161.6Z" transform="translate(-46.83 -79.119)"/>
    <path id="Path_3062" data-name="Path 3062" d="M131.716,195.39l-1.759-4.01h.7l1.031,2.406c.031.076.067.164.112.263l.137.312c.048.109.092.215.134.318s.076.2.1.281l-.172.005c.038-.107.084-.226.138-.361s.109-.271.166-.412.11-.275.16-.4l.957-2.411h.722l-1.736,4.01Z" transform="translate(-53.725 -79.118)"/>
    <path id="Path_3063" data-name="Path 3063" d="M141.245,195.39v-4.01h3.036v.6h-2.417v2.819h2.417v.6Zm.315-2.354h2.406v.6H141.56Z" transform="translate(-58.392 -79.118)"/>
    <path id="Path_3064" data-name="Path 3064" d="M151.176,195.39v-4.01h.59l2.967,3.283-.057.052q-.024-.16-.043-.35c-.014-.126-.024-.256-.032-.389s-.015-.272-.02-.415-.011-.287-.015-.432-.006-.289-.006-.43V191.38h.618v4.01h-.6l-2.927-3.162.028-.08c.012.126.022.249.032.37s.02.236.032.346.02.217.026.318.011.2.017.287.009.174.009.255v1.667Z" transform="translate(-62.498 -79.118)"/>
    <path id="Path_3065" data-name="Path 3065" d="M163.614,195.39v-3.414h-1.375v-.6h3.409v.6h-1.415v3.414Z" transform="translate(-67.071 -79.118)"/>
    <path id="Path_3066" data-name="Path 3066" d="M174.044,195.421a1.952,1.952,0,0,1-.977-.238,1.725,1.725,0,0,1-.659-.648,1.814,1.814,0,0,1-.238-.931v-2.234h.618v2.2a1.223,1.223,0,0,0,.625,1.085,1.246,1.246,0,0,0,.63.164,1.31,1.31,0,0,0,.656-.164,1.221,1.221,0,0,0,.628-1.085v-2.2h.59V193.6a1.82,1.82,0,0,1-.238.931,1.729,1.729,0,0,1-.659.648,1.954,1.954,0,0,1-.977.238" transform="translate(-71.177 -79.115)"/>
    <path id="Path_3067" data-name="Path 3067" d="M183.42,195.39v-4.01h2.114a1.284,1.284,0,0,1,.642.166,1.317,1.317,0,0,1,.469.45,1.172,1.172,0,0,1,.178.633,1.158,1.158,0,0,1-.186.639,1.388,1.388,0,0,1-1.177.633h-1.421v1.489Zm.619-2.085h1.4a.744.744,0,0,0,.367-.092.714.714,0,0,0,.263-.246.624.624,0,0,0,.1-.338.567.567,0,0,0-.1-.335.715.715,0,0,0-.283-.232.923.923,0,0,0-.4-.086h-1.346Zm2.223,2.085-1.237-1.81.653-.143,1.352,1.959Z" transform="translate(-75.828 -79.118)"/>
    <path id="Path_3068" data-name="Path 3068" d="M194.182,195.39v-4.01h3.036v.6H194.8v2.819h2.417v.6Zm.315-2.354H196.9v.6H194.5Z" transform="translate(-80.277 -79.118)"/>
    <path id="Path_3069" data-name="Path 3069" d="M205.431,195.407a2.918,2.918,0,0,1-.727-.086,2.125,2.125,0,0,1-.6-.258,2.156,2.156,0,0,1-.5-.435l.4-.5a2.239,2.239,0,0,0,.679.559,1.721,1.721,0,0,0,.776.169,1.759,1.759,0,0,0,.507-.072,1.022,1.022,0,0,0,.389-.206.429.429,0,0,0,.152-.335.345.345,0,0,0-.075-.223.614.614,0,0,0-.2-.155,1.54,1.54,0,0,0-.283-.106c-.106-.029-.212-.052-.321-.072l-.307-.052a3.74,3.74,0,0,1-.638-.146,1.722,1.722,0,0,1-.479-.238.973.973,0,0,1-.3-.344.987.987,0,0,1-.1-.458.955.955,0,0,1,.123-.481,1.1,1.1,0,0,1,.346-.37,1.731,1.731,0,0,1,.521-.232,2.511,2.511,0,0,1,.648-.08,2.689,2.689,0,0,1,.673.08,1.826,1.826,0,0,1,.544.238,1.485,1.485,0,0,1,.4.387l-.424.447a1.462,1.462,0,0,0-.33-.327,1.445,1.445,0,0,0-.409-.2,1.591,1.591,0,0,0-.47-.069,1.654,1.654,0,0,0-.5.069.847.847,0,0,0-.344.192.4.4,0,0,0-.126.3.42.42,0,0,0,.074.249.6.6,0,0,0,.212.181,1.49,1.49,0,0,0,.338.126,4.038,4.038,0,0,0,.459.086,6.381,6.381,0,0,1,.627.129,2.263,2.263,0,0,1,.519.2.988.988,0,0,1,.349.309.8.8,0,0,1,.126.455,1.108,1.108,0,0,1-.212.676,1.357,1.357,0,0,1-.6.443,2.435,2.435,0,0,1-.916.158" transform="translate(-84.172 -79.078)"/>
  </g>
</svg>
