<svg id="Group_3493" data-name="Group 3493" xmlns="http://www.w3.org/2000/svg" xmlns:xlink="http://www.w3.org/1999/xlink" width="330.223" height="105.483" viewBox="0 0 330.223 105.483">
  <defs>
    <clipPath id="clip-path">
      <rect id="Rectangle_200" data-name="Rectangle 200" width="330.223" height="105.483" fill="none"/>
    </clipPath>
  </defs>
  <path id="Path_3202" data-name="Path 3202" d="M394.954,1.6l10.117-.005-1.753,2.181V44.294l1.752,2.179-11.288.016L375.107,15.749V46.463l-10.113.007,1.749-2.176V3.773L364.993,1.6h11.3L394.954,32.31ZM393.384.027V26.7L377.177.027H361.718l3.455,4.3V43.742l-3.456,4.3,14.96-.01V21.357l16.223,26.7,15.441-.023-3.454-4.3V4.325L408.347.019Z" transform="translate(-172.443 -0.009)" fill="#fffded"/>
  <path id="Path_3203" data-name="Path 3203" d="M123.594,21.047V3.863l-1.832-2.279H133.79l-1.832,2.28V44.18l1.832,2.279H121.762l1.832-2.279V29.411H105.506V44.18l1.832,2.279H95.311l1.832-2.279V3.864l-1.832-2.28h12.027l-1.832,2.279V21.047ZM118.487.014l3.538,4.4V19.477H107.076V4.416l3.538-4.4H92.035l3.538,4.4v39.21l-3.538,4.4h18.579l-3.538-4.4V30.98h14.949V43.627l-3.538,4.4h18.579l-3.538-4.4V4.416l3.538-4.4Z" transform="translate(-43.876 -0.007)" fill="#fffded"/>
  <path id="Path_3204" data-name="Path 3204" d="M463.37,44.173V3.856l-1.832-2.28,36.648-.006v10.2l-2.279-1.832H471.733v9.522H488.9v8.363h-17.17v10.27h24.173l2.279-1.832v10.2H461.538ZM499.755,0,458.263.007l3.537,4.4V43.62l-3.537,4.4h41.492V32.981l-4.4,3.538H473.3v-7.13h17.169v-11.5H473.3V11.5h22.049l4.4,3.538Z" transform="translate(-218.469)" fill="#fffded"/>
  <path id="Path_3205" data-name="Path 3205" d="M282.692,1.584h33.521V12.877l-3.647-2.93h-8.933V44.18l1.832,2.279H293.439l1.832-2.279V9.948h-8.933l-3.646,2.93Zm-1.57-1.57v16.14l5.769-4.637h6.81v32.11l-3.538,4.4h18.579l-3.538-4.4V11.517h6.809l5.769,4.637V.014Z" transform="translate(-134.02 -0.007)" fill="#fffded"/>
  <path id="Path_3206" data-name="Path 3206" d="M577.541,1.57h9.786L571.815,27.144V44.173l1.832,2.279H561.62l1.832-2.279V27.144L547.94,1.57h9.786l9.907,16.337ZM576.657,0l-9.024,14.88L558.609,0H545.152l16.73,27.582V43.62l-3.537,4.4h18.579l-3.539-4.4V27.583L590.115,0Z" transform="translate(-259.892)" fill="#fffded"/>
  <g id="Group_3492" data-name="Group 3492">
    <g id="Group_3491" data-name="Group 3491" clip-path="url(#clip-path)">
      <path id="Path_3207" data-name="Path 3207" d="M212.23.014l3.538,4.4-.015,24.636a7.459,7.459,0,1,1-14.919,0L200.82,4.415l3.539-4.4h-18.58l3.538,4.4L189.3,29.052a18.992,18.992,0,1,0,37.984,0l-.016-24.635,3.538-4.4Zm13.487,29.038a17.422,17.422,0,1,1-34.845,0l.015-25.188-1.832-2.28h12.027L199.25,3.863l.015,25.188a9.029,9.029,0,0,0,18.058,0l.015-25.189-1.832-2.279h12.028L225.7,3.864Z" transform="translate(-88.567 -0.007)" fill="#fffded"/>
      <path id="Path_3208" data-name="Path 3208" d="M21.085,36.554c-5.283-.013-9.582-5.62-9.582-12.5s4.3-12.486,9.578-12.5a8.145,8.145,0,0,1,5.726,2.509v5.374l1.164-.642c3.628-2,7.376-4.076,10.879-6.018l.672-.373-.359-.68C35.366,4.537,28.441.065,21.092.052h-.086C9.416.113,0,10.863,0,24.055,0,36.724,8.687,47.142,19.662,48c.227.018,2.157.091,2.157.091H41.969v-11.5l-.783,0-20.1-.035M40.4,46.522H23.309s-.935.008-1.867-.013c-.788-.018-1.574-.064-1.79-.083C9.557,45.569,1.57,35.858,1.57,24.055c0-12.347,8.742-22.406,19.514-22.433h0c6.64.009,12.691,3.792,16.321,10.162-2.927,1.622-6.006,3.325-9.028,4.995V13.425l-.219-.228A9.892,9.892,0,0,0,21.08,9.986C14.934,10,9.933,16.313,9.933,24.055s5,14.054,11.148,14.069h0l19.316.033Z" transform="translate(0 -0.025)" fill="#fffded"/>
      <path id="Path_3209" data-name="Path 3209" d="M306.339,146.277c-5.283-.013-9.582-5.62-9.582-12.5s4.3-12.486,9.577-12.5a8.143,8.143,0,0,1,5.726,2.508v5.375l1.164-.642c3.628-2,7.376-4.076,10.879-6.018l.672-.373-.359-.681c-3.8-7.189-10.723-11.662-18.072-11.674h-.1c-11.581.071-20.987,10.816-20.987,24,0,13.21,9.441,23.972,21.077,24l.05,0,20.841.038v-11.5h-.783l-20.1-.035m19.314,9.966-19.27-.035-.048,0c-10.759-.014-19.511-10.077-19.511-22.433,0-12.3,8.671-22.325,19.383-22.432h.131c6.64.008,12.69,3.792,16.321,10.162-2.927,1.622-6.006,3.325-9.029,4.995v-3.355l-.219-.228a9.893,9.893,0,0,0-7.077-3.21c-6.146.015-11.147,6.327-11.147,14.069s5,14.054,11.147,14.07h0l19.316.033Z" transform="translate(-135.99 -52.333)" fill="#fffded"/>
      <path id="Path_3210" data-name="Path 3210" d="M391.633,109.825v-.017h-1.573v.017c-11.261.485-20.3,11.063-20.3,23.985,0,13.209,9.442,23.97,21.077,24h.027c11.615-.026,21.062-10.788,21.062-24,0-12.922-9.035-23.5-20.3-23.985m-.744,46.418h-.043c-10.759-.014-19.512-10.077-19.512-22.432,0-12.3,8.673-22.327,19.365-22.432h.15c10.758.014,19.512,10.077,19.512,22.432,0,12.34-8.731,22.394-19.471,22.433" transform="translate(-176.279 -52.349)" fill="#fffded"/>
      <path id="Path_3211" data-name="Path 3211" d="M399.895,128.792c-6.147.015-11.148,6.326-11.148,14.069s5,14.054,11.148,14.069h0c6.147-.015,11.148-6.327,11.148-14.069s-5-14.054-11.152-14.069m0,26.568c-5.283-.015-9.58-5.621-9.58-12.5s4.3-12.486,9.578-12.5c5.283.013,9.582,5.62,9.582,12.5s-4.3,12.485-9.58,12.5" transform="translate(-185.329 -61.399)" fill="#fffded"/>
      <path id="Path_3212" data-name="Path 3212" d="M543.185,114.928c-6.724-4.513-15.123-5.121-22.453-5.121H499.26c-7.33,0-15.729.609-22.454,5.121a20.35,20.35,0,0,0-6.912,8.129,25.374,25.374,0,0,0,0,21.5,20.33,20.33,0,0,0,6.912,8.129c6.724,4.513,15.124,5.122,22.454,5.122h21.473c7.33,0,15.729-.609,22.453-5.121,5.825-3.909,9.3-10.969,9.3-18.882s-3.478-14.972-9.3-18.882m-.875,36.461c-6.374,4.278-14.485,4.854-21.578,4.854H499.26c-7.093,0-15.2-.577-21.579-4.855a18.777,18.777,0,0,1-6.372-7.506,23.806,23.806,0,0,1,0-20.145,18.78,18.78,0,0,1,6.372-7.506c6.374-4.278,14.486-4.855,21.579-4.855h21.473c7.093,0,15.2.577,21.578,4.855,5.39,3.618,8.608,10.19,8.608,17.578s-3.218,13.961-8.608,17.579" transform="translate(-222.874 -52.349)" fill="#fffded"/>
      <path id="Path_3213" data-name="Path 3213" d="M499.7,162.733h2.894v8.607h1.854v-8.607h2.925V161.18H499.7Z" transform="translate(-238.223 -76.84)" fill="#fffded"/>
      <path id="Path_3214" data-name="Path 3214" d="M521.534,161.18l-3.256,10.16h1.915l.874-2.879h3.227l.919,2.879H527.2l-3.3-10.16Zm-.166,5.879.784-2.5c.181-.6.332-1.312.482-1.9,0,0,.347,1.281.543,1.9l.8,2.5Z" transform="translate(-247.08 -76.84)" fill="#fffded"/>
      <path id="Path_3215" data-name="Path 3215" d="M549.055,161.865a4.6,4.6,0,0,0-3-.829,16.049,16.049,0,0,0-2.834.211v10.025h1.839v-3.829a5.194,5.194,0,0,0,.9.061,4.481,4.481,0,0,0,3.211-1.086,3.077,3.077,0,0,0,.875-2.306,2.87,2.87,0,0,0-1-2.246m-3.09,4.191a3.727,3.727,0,0,1-.9-.075v-3.437a5.094,5.094,0,0,1,1.071-.091c1.281,0,2.065.6,2.065,1.734,0,1.191-.845,1.869-2.231,1.869" transform="translate(-258.972 -76.771)" fill="#fffded"/>
      <path id="Path_3216" data-name="Path 3216" d="M564.279,161.18l-3.256,10.16h1.914l.874-2.879h3.226l.92,2.879h1.989l-3.3-10.16Zm-.166,5.879.784-2.5c.181-.6.513-1.9.513-1.9.151.588.317,1.281.512,1.9l.8,2.5Z" transform="translate(-267.458 -76.84)" fill="#fffded"/>
      <path id="Path_3217" data-name="Path 3217" d="M589.083,165.28c-1.357-.527-1.945-.889-1.945-1.673,0-.588.513-1.221,1.689-1.221a4.3,4.3,0,0,1,2.02.482l.452-1.492a5.361,5.361,0,0,0-2.442-.513c-2.2,0-3.588,1.266-3.588,2.925,0,1.462,1.07,2.352,2.743,2.955,1.3.467,1.809.919,1.809,1.688,0,.829-.663,1.387-1.854,1.387a5.131,5.131,0,0,1-2.457-.648l-.406,1.537a6.03,6.03,0,0,0,2.743.633c2.623,0,3.859-1.417,3.859-3.045,0-1.463-.859-2.352-2.622-3.015" transform="translate(-278.938 -76.689)" fill="#fffded"/>
      <rect id="Rectangle_198" data-name="Rectangle 198" width="1.854" height="10.16" transform="translate(257.3 68.346)" fill="#fffded"/>
      <path id="Path_3218" data-name="Path 3218" d="M512.558,130.615H510.84v3.543c0,1.552.045,2.863.166,4.221,0,0-1.085-2.277-1.764-3.408l-2.623-4.356h-2.11v10.16h1.7v-3.633c0-1.673-.015-3.015-.09-4.326,0,0,1.221,2.382,1.869,3.5l2.653,4.462h1.914Z" transform="translate(-240.516 -62.269)" fill="#fffded"/>
      <path id="Path_3219" data-name="Path 3219" d="M536.263,131.647a6.186,6.186,0,0,0-4.145-1.175,18.754,18.754,0,0,0-2.955.21v9.994a20.262,20.262,0,0,0,2.5.136,6.782,6.782,0,0,0,4.6-1.387,5.259,5.259,0,0,0,1.583-4.04,4.546,4.546,0,0,0-1.583-3.738m-4.22,7.688a6.864,6.864,0,0,1-1.026-.046v-7.266a5.945,5.945,0,0,1,1.267-.105c2.321,0,3.618,1.281,3.6,3.527,0,2.578-1.433,3.9-3.844,3.89" transform="translate(-252.27 -62.2)" fill="#fffded"/>
      <rect id="Rectangle_199" data-name="Rectangle 199" width="1.854" height="10.16" transform="translate(289.901 68.346)" fill="#fffded"/>
      <path id="Path_3220" data-name="Path 3220" d="M568.627,130.616l-3.256,10.16h1.914l.874-2.879h3.226l.92,2.879h1.99l-3.3-10.16Zm-.166,5.879.784-2.5c.181-.6.332-1.312.482-1.9,0,0,.347,1.281.543,1.9l.8,2.5Z" transform="translate(-269.531 -62.269)" fill="#fffded"/>
      <path id="Path_3221" data-name="Path 3221" d="M596.646,134.158c0,1.553.045,2.864.166,4.221,0,0-1.085-2.276-1.763-3.407l-2.623-4.357h-2.111v10.16h1.7v-3.633c0-1.673-.015-3.015-.091-4.326,0,0,1.221,2.381,1.87,3.5l2.653,4.462h1.915v-10.16h-1.719Z" transform="translate(-281.422 -62.269)" fill="#fffded"/>
      <path id="Path_3222" data-name="Path 3222" d="M43.281,154.591l-9.536-38.617,2.571-3.2H14.782l2.572,3.2L7.775,154.76l-2.327,2.9,10.416-.007,3.686-14.928h12l3.686,14.928,10.417.007-2.328-2.9ZM21.616,134.356l3.933-15.925,3.932,15.925Z" transform="translate(-2.597 -53.764)" fill="#fffded"/>
      <path id="Path_3223" data-name="Path 3223" d="M142.462,112.776l-10.117.005V143.5l-18.659-30.713h-11.3l1.75,2.177V155.48l-1.749,2.177,10.112-.008V126.934l18.675,30.741,11.287-.016-1.752-2.179V114.958Z" transform="translate(-48.81 -53.764)" fill="#fffded"/>
      <path id="Path_3224" data-name="Path 3224" d="M216.949,112.782l-17.768,0,1.753,2.181v40.5l-1.753,2.182,17.768,0h0c10.759-.014,19.511-10.077,19.511-22.432s-8.752-22.418-19.511-22.432m0,36.5H209.3V121.142l7.649,0c6.148.015,11.149,6.326,11.149,14.069s-5,14.054-11.148,14.07" transform="translate(-94.956 -53.767)" fill="#fffded"/>
    </g>
  </g>
</svg>
