<svg xmlns="http://www.w3.org/2000/svg" xmlns:xlink="http://www.w3.org/1999/xlink" width="27.445" height="32.934" viewBox="0 0 27.445 32.934">
  <defs>
    <clipPath id="clip-path">
      <rect id="Rectangle_8" data-name="Rectangle 8" width="22.219" height="4.259" fill="#cfc4ae"/>
    </clipPath>
    <clipPath id="clip-path-2">
      <path id="Path_66" data-name="Path 66" d="M161.888,224l-3.975,4.129V229.3l2.95,2.84.444.427H168.1l1.275-1.325,1.5-1.556v-2.365L167.428,224Z" transform="translate(-157.913 -224)" fill="#cfc4ae"/>
    </clipPath>
  </defs>
  <g id="Group_3470" data-name="Group 3470" transform="translate(-833.746 -1162.675)">
    <path id="Path_3048" data-name="Path 3048" d="M153.332,182.581a14.829,14.829,0,0,1-1.012,1.107,8.316,8.316,0,0,1-2.725,1.871c-.1.038-.2.072-.3.1a.173.173,0,0,1-.217-.069c-.05-.08,0-.145.049-.217a1.143,1.143,0,0,1,.439-.309,7.593,7.593,0,0,0,2.371-1.963,15.008,15.008,0,0,0,3.275-7.1,9.48,9.48,0,0,0,.153-2.085.93.93,0,0,0-.011-.141c-.015-.057-.039-.1-.107-.038a4.089,4.089,0,0,1-1.351.7,19.632,19.632,0,0,1-4.253,1.019,36.357,36.357,0,0,1-9.443.072,18.863,18.863,0,0,1-4.1-.92,7.994,7.994,0,0,1-1.874-.92c-.146-.1-.146-.026-.153.088a9.809,9.809,0,0,0,.141,2.264,15.118,15.118,0,0,0,3.05,6.844,7.683,7.683,0,0,0,2.816,2.34.746.746,0,0,1,.268.271c.076.1,0,.221-.137.232a.553.553,0,0,1-.221-.053,7.481,7.481,0,0,1-2.634-1.691,15.167,15.167,0,0,1-4.367-7.787,6.84,6.84,0,0,1,.382-4.649,2.456,2.456,0,0,1,1-1.061,8.909,8.909,0,0,1,2.252-1.027,20.912,20.912,0,0,1,4.592-.855,35.486,35.486,0,0,1,5.841-.03,24.965,24.965,0,0,1,5.775,1.019,9.14,9.14,0,0,1,2.378,1.08,2.72,2.72,0,0,1,1.123,1.5,7.231,7.231,0,0,1,.27,3.008c-.007.053-.05.126.012.16.031.015.1-.03.141-.05a4.6,4.6,0,0,1,1.589-.488,1.688,1.688,0,0,1,1.778,1.386,4.328,4.328,0,0,1,.023,1.66,2.831,2.831,0,0,1-.825,1.348,5.328,5.328,0,0,1-2.493,1.393c-.66.2-1.32.412-1.977.626a1.917,1.917,0,0,0-.466.248.24.24,0,0,0-.11.187c-.012.153-.038.317.122.412a.516.516,0,0,0,.534-.015c.057-.03.1-.076.16-.11a.252.252,0,0,1,.412.149.511.511,0,0,1-.057.488,1.324,1.324,0,0,1-1.225.68.932.932,0,0,1-.89-.68m-15.883-8.28c-.095-.053-.194-.107-.29-.164a2.318,2.318,0,0,1-.8-.729.925.925,0,0,1,.015-1.061,2.006,2.006,0,0,1,.507-.508,5.152,5.152,0,0,1,1.428-.71,18.445,18.445,0,0,1,3.982-.783,23.125,23.125,0,0,1,4.08-.049,21.674,21.674,0,0,1,4.348.919,5.173,5.173,0,0,1,1.706.817.992.992,0,0,1,.05,1.732,4.063,4.063,0,0,1-1.187.676c-.3.118-.607.222-.938.339a.45.45,0,0,0,.076,0,13.027,13.027,0,0,0,2.462-.779,4.263,4.263,0,0,0,1.432-.942,1.177,1.177,0,0,0,.03-1.733,3.344,3.344,0,0,0-.866-.687,10.749,10.749,0,0,0-3.149-1.137,26.77,26.77,0,0,0-11.647.007,9.518,9.518,0,0,0-2.645.993,2.794,2.794,0,0,0-1.107,1.031,1.129,1.129,0,0,0,.008,1.16,2.241,2.241,0,0,0,.55.634,5.306,5.306,0,0,0,1.286.752,2.249,2.249,0,0,0,.668.217m17.407,6.024a12.2,12.2,0,0,0,2.786-1.229,2.164,2.164,0,0,0,1.275-1.771,1.01,1.01,0,0,0-.7-1.232,2,2,0,0,0-1.665.141.291.291,0,0,0-.175.221,13.945,13.945,0,0,1-.905,2.641c-.186.409-.392.809-.614,1.229" transform="translate(700.977 1006.756)" fill="#cfc4ae"/>
    <g id="Group_153" data-name="Group 153" transform="translate(834.408 1191.349)" clip-path="url(#clip-path)">
      <path id="Path_61" data-name="Path 61" d="M139.842,261.466a5.359,5.359,0,0,0-.79.534.4.4,0,0,0-.011.653,3.6,3.6,0,0,0,1.126.676,15.225,15.225,0,0,0,3.863,1.045,28.526,28.526,0,0,0,6.039.245,25.1,25.1,0,0,0,5.634-.9,7.662,7.662,0,0,0,1.278-.488,2.7,2.7,0,0,0,.534-.34.381.381,0,0,0,.1-.558q-.069-.12-.149-.241c-.05-.072-.107-.138-.172-.225a1.5,1.5,0,0,1,.458.111,2.589,2.589,0,0,1,.985.56.733.733,0,0,1,.134.962,1.91,1.91,0,0,1-.634.626,5.891,5.891,0,0,1-1.5.679,16.716,16.716,0,0,1-3.466.664,62.9,62.9,0,0,1-7.348.259,24.933,24.933,0,0,1-4.794-.431,8.211,8.211,0,0,1-2.878-1.1,3.854,3.854,0,0,1-.932-.828,2,2,0,0,1-.324-.562.757.757,0,0,1,.382-1,1.24,1.24,0,0,1,.191-.088,6.9,6.9,0,0,1,2.275-.26m-.561,2.149c.026.065.091.088.141.122a8.488,8.488,0,0,0,2.752,1.134,21.2,21.2,0,0,0,4.413.543,33.649,33.649,0,0,0,7.222-.474,11.386,11.386,0,0,0,2.843-.847,3.047,3.047,0,0,0,.84-.531c-.362.146-.73.278-1.1.393a27.507,27.507,0,0,1-6.543,1.019,32.365,32.365,0,0,1-5.676-.172,18.539,18.539,0,0,1-4.776-1.16c-.031-.015-.065-.05-.114-.027" transform="translate(-136.874 -261.429)" fill="#cfc4ae"/>
    </g>
    <path id="Path_62" data-name="Path 62" d="M188.861,107.984a2.744,2.744,0,0,0,1.221-.493,2.29,2.29,0,0,0,.962-2.225,9.371,9.371,0,0,0-1-3.276,16.57,16.57,0,0,1-.974-2.065,3.162,3.162,0,0,1-.041-2.088,2.417,2.417,0,0,1,1.878-1.623,3.239,3.239,0,0,1,1.481.043,1.808,1.808,0,0,1,.183.061.217.217,0,0,1,.156.244c-.012.118-.095.153-.191.176a2.932,2.932,0,0,0-.866.335,1.976,1.976,0,0,0-1.054,2.023,6.741,6.741,0,0,0,.63,2.115c.428.984.962,1.92,1.4,2.9a2.244,2.244,0,0,1-.806,3.1,4.351,4.351,0,0,1-2.706.835.448.448,0,0,1-.268-.061" transform="translate(654.622 1066.527)" fill="#cfc4ae"/>
    <path id="Path_63" data-name="Path 63" d="M175.777,131.386a4.95,4.95,0,0,0,.428-.462,1.585,1.585,0,0,0,.118-1.787,4.872,4.872,0,0,0-1.145-1.436,4.937,4.937,0,0,1-.687-.7,1.725,1.725,0,0,1,.313-2.447,2.116,2.116,0,0,1,.867-.412c.08-.019.183-.065.232.043s-.038.156-.107.213a1.985,1.985,0,0,0-.359.359,1.346,1.346,0,0,0-.091,1.7,6.8,6.8,0,0,0,1.084,1.221,7.605,7.605,0,0,1,.817.82,1.249,1.249,0,0,1,.118,1.39,3.1,3.1,0,0,1-1.588,1.5" transform="translate(666.805 1043.415)" fill="#cfc4ae"/>
    <path id="Path_64" data-name="Path 64" d="M208.257,130.171a1.578,1.578,0,0,0,.611-.034,1.111,1.111,0,0,0,.863-.976,5.266,5.266,0,0,0-.11-1.939,14.438,14.438,0,0,1-.34-1.508,1.876,1.876,0,0,1,.172-1.126,1.189,1.189,0,0,1,1.16-.649,1.947,1.947,0,0,1,.989.34.471.471,0,0,1,.057.042.141.141,0,0,1,.065.168c-.031.084-.1.069-.16.061a1.578,1.578,0,0,0-.676.084.957.957,0,0,0-.637.852,4.567,4.567,0,0,0,.16,1.637c.1.474.226.947.344,1.42a2.73,2.73,0,0,1,.069.713.984.984,0,0,1-.618.943,2.323,2.323,0,0,1-1.882.034c-.019-.007-.027-.027-.065-.061" transform="translate(638.593 1043.561)" fill="#cfc4ae"/>
    <g id="Group_3454" data-name="Group 3454" transform="translate(838.111 1184.868)">
      <g id="Group_157" data-name="Group 157" transform="translate(0)" clip-path="url(#clip-path-2)">
        <path id="Path_65" data-name="Path 65" d="M169.747,226.151c.274.366.553.73.821,1.1.192.267.365.546.55.818a2.273,2.273,0,0,1-.05,2.759,3.83,3.83,0,0,1-.9.9,7.347,7.347,0,0,1-2.595,1.163,9.085,9.085,0,0,1-5.059-.2,8.34,8.34,0,0,1-2.734-1.729,4.488,4.488,0,0,1-.677-.844,1.172,1.172,0,0,1-.1-1.21,2.951,2.951,0,0,1,1.081-1.36,25.765,25.765,0,0,1,4.055-2.234,6.823,6.823,0,0,1,1.8-.485,4.538,4.538,0,0,1,3.8,1.323m-10.15,3.6c.407.391.652.658.928.889a7.754,7.754,0,0,0,7.586,1.513,4.5,4.5,0,0,0,2.254-1.532,1.64,1.64,0,0,0-.736-2.645,2.45,2.45,0,0,0-1.735.116,6.075,6.075,0,0,0-2.334,1.6,3.766,3.766,0,0,1-4.426.885c-.467-.2-.9-.481-1.536-.828m9.669-2.816c0-.091.018-.132,0-.147a3.909,3.909,0,0,0-3.7-1.381,5,5,0,0,0-1.765.6c-.858.485-1.728.95-2.582,1.443-.455.263-.9.552-1.323.86a2.105,2.105,0,0,0-.358.5,3.086,3.086,0,0,0,2.891.962,4.505,4.505,0,0,0,2.071-1.092c.33-.271.663-.538.993-.808a4.293,4.293,0,0,1,3.42-.923,2.111,2.111,0,0,0,.349-.011" transform="translate(-158.713 -224.651)" fill="#cfc4ae" fill-rule="evenodd"/>
      </g>
    </g>
  </g>
</svg>
