<svg xmlns="http://www.w3.org/2000/svg" width="23.888" height="23.888" viewBox="0 0 23.888 23.888">
  <path id="wifi_calling_bar_1_24dp_1F1F1F_FILL0_wght400_GRAD0_opsz24" d="M137.916-829.417a1.284,1.284,0,0,1-.946-.382,1.284,1.284,0,0,1-.382-.945,1.284,1.284,0,0,1,.382-.946,1.284,1.284,0,0,1,.946-.382,1.284,1.284,0,0,1,.946.382,1.284,1.284,0,0,1,.382.946,1.284,1.284,0,0,1-.382.945A1.284,1.284,0,0,1,137.916-829.417Zm4.578,13.3a19.921,19.921,0,0,1-8.195-1.808,24.515,24.515,0,0,1-7.365-5.126,24.516,24.516,0,0,1-5.126-7.365A19.921,19.921,0,0,1,120-838.607a1.35,1.35,0,0,1,.4-1,1.35,1.35,0,0,1,1-.4h5.375a1.234,1.234,0,0,1,.829.315,1.212,1.212,0,0,1,.431.746l.863,4.645a2.34,2.34,0,0,1-.033.9,1.4,1.4,0,0,1-.365.63l-3.218,3.251a16.048,16.048,0,0,0,1.576,2.372,23.35,23.35,0,0,0,2.007,2.206,23.327,23.327,0,0,0,2.157,1.908,20.966,20.966,0,0,0,2.389,1.609l3.119-3.119a1.86,1.86,0,0,1,.78-.448,2.138,2.138,0,0,1,.946-.083l4.578.929a1.536,1.536,0,0,1,.763.481,1.168,1.168,0,0,1,.3.78v5.375a1.35,1.35,0,0,1-.4,1A1.351,1.351,0,0,1,142.494-816.112Zm-18.48-15.925,2.19-2.19-.564-3.119h-2.953q.166,1.36.464,2.687A14.537,14.537,0,0,0,124.014-832.038Zm11.877,11.877a16.48,16.48,0,0,0,2.638.9,16.207,16.207,0,0,0,2.7.431v-2.92l-3.119-.63ZM124.014-832.038ZM135.892-820.16Z" transform="translate(-120 840)" fill="#cfc4ae"/>
</svg>
